<svg style="height: 100px; width: 100px;" xmlns="http://www.w3.org/2000/svg" viewBox="0 0 512 512"><g class="" style="" transform="translate(0,0)"><g><path d="M108.938 32.188C92.181 32.25 76.254 38.118 63.031 47.563C29.181 71.743 12.626 122.408 44.345 165.531C69.32 199.486 58.5 243.86 32.656 268.907L45.5 282.344C77.474 251.354 90.587 196.702 59.5 154.438C33.557 119.168 47.062 81.658 73.53 62.75C86.766 53.298 103.318 48.997 119.656 52.22C135.322 55.308 151.326 65.384 165.719 86.813L106.624 121.031L130.749 162.907C81.291 226.267 72.242 315.962 114.843 389.97C170.813 487.204 294.723 520.534 391.593 464.438C488.463 408.342 521.595 284.048 465.623 186.813C423.103 112.943 341.39 75.95 262.093 87.031L237.906 45L181.876 77.47C165.126 52.132 144.406 37.718 123.188 33.53C118.412 32.59 113.628 32.17 108.938 32.188Z" class="selected" fill="#fca364" fill-opacity="1"></path><path d="M256.563 127.218C350.06 170.718 368.083 228.828 331.281 296.468C365.201 278.278 379.861 251.462 365.595 212.5C398.345 234.497 415.638 278.27 414.907 325.5C413.935 388.35 381.547 427.728 340.345 444.53C348.915 431.426 354.032 415.004 354.032 397.156C354.032 356.879 328.048 323.782 294.815 320C308.2 328.105 317.127 342.803 317.127 359.594C317.127 385.14 296.424 405.844 270.877 405.844C249.707 405.844 231.873 391.626 226.377 372.219C224.129 380.044 222.877 388.431 222.877 397.155C222.877 413.565 227.202 428.779 234.565 441.312C195.343 422.742 164.959 383.852 163.69 325.499C162.697 279.829 180.258 249.733 220.408 227.749C205.25 256.122 211.162 289.084 227.314 302.874C216.694 233.476 322.102 195.918 256.564 127.28L256.564 127.22Z" class="" fill="#fcc13d" fill-opacity="1"></path></g></g></svg>