<svg style="height: 100px; width: 100px;" xmlns="http://www.w3.org/2000/svg" viewBox="0 0 512 512"><g class="" style="" transform="translate(0,0)"><g><path d="M12.195 20.94L12.195 60.068C88.647 133.094 163.582 212.642 199.665 275.568C212.265 297.546 237.779 348.54 248.721 394.125C217.297 390.737 183.959 379.492 152.361 360.252C163.966 379.277 177.931 398.09 194.993 415.15C278.888 499.047 395.541 518.292 455.466 458.367C515.393 398.44 496.144 281.793 412.246 197.897C395.184 180.834 376.374 166.869 357.351 155.264C378.667 190.274 390.621 227.211 392.391 261.554C345.091 248.118 288.631 222.989 265.075 209.578C201.59 173.434 121.32 98.073 47.818 20.938L12.195 20.938Z" class="selected" fill="#fb944b" fill-opacity="1"></path><path d="M374.89 285.866C422.52 285.866 461.447 322.162 465.617 368.683C453.392 345.983 429.41 330.55 401.82 330.55C361.825 330.55 329.4 362.973 329.4 402.97C329.4 408.432 330.01 413.75 331.158 418.867C333.993 397.687 352.256 381.193 374.176 381.193C398.042 381.193 417.59 400.743 417.59 424.607C417.59 448.473 398.042 468.02 374.176 468.02C372.586 468.02 371.019 467.927 369.473 467.758C369.587 467.815 369.698 467.878 369.813 467.934C321.761 465.311 283.785 425.694 283.785 376.974C283.785 326.546 324.462 285.867 374.889 285.867Z" class="" fill="#e5fc3d" fill-opacity="1"></path></g></g></svg>