<svg style="height: 100px; width: 100px;" xmlns="http://www.w3.org/2000/svg" viewBox="0 0 512 512"><g class="" style="" transform="translate(0,0)"><g><path d="M50.656 22.125C75.518 54.013 330.656 380.693 391.719 433.845C468.621 500.781 524.437 430.031 464.719 360.845C412.522 300.375 95.235 52.757 55.905 22.125L50.655 22.125Z" class="" fill="#fb944b" fill-opacity="1"></path><path d="M239.312 22.125C284.642 83.513 371.842 200.362 404.562 228.845C458.307 275.625 497.704 225.822 455.969 177.469C429.4 146.69 326.902 69.273 263.25 22.124L239.312 22.124Z" class="" fill="#fcc13d" fill-opacity="1"></path><path d="M370.687 22.125C385.11 38.203 397.84 51.793 404 57.155C445.042 92.879 475.142 58.91 450.125 22.125L370.687 22.125Z" class="" fill="#f28a8a" fill-opacity="1"></path><path d="M17.375 132.5L17.375 186.813C60.077 241.746 104.782 297.329 125.405 315.281C179.153 362.064 218.548 312.825 176.812 264.471C155.402 239.664 81.036 181.228 17.375 132.501Z" class="" fill="#f92d2d" fill-opacity="1"></path><path d="M17.375 298.344L17.375 355C63.353 409.937 107.745 462.056 123.655 475.906C171.307 517.382 205.628 473.213 168.625 430.344C152.181 411.294 83.839 353.417 17.375 298.344Z" class="selected" fill="#ed8d27" fill-opacity="1"></path></g></g></svg>